<svg id="ad3f7f04-431c-411d-a89c-29772bc7310d" data-name="圖層 1" xmlns="http://www.w3.org/2000/svg" viewBox="0 0 256 256"><title>Logo-標準綠</title><path d="M133.56,168.86c0-2.6-.14-5.21.12-7.78A13.88,13.88,0,0,1,138.6,152a43,43,0,0,1,7.43-5,56.18,56.18,0,0,0,21.84-22.46c2.19-4.08,2.84-8.43,3.32-12.88.17-1.55.19-3.11.26-4.66,0-.92-.52-1-1-.52-5.09,4.82-11.66,5.78-18.13,6.63a24.85,24.85,0,0,0-18.47,11.51A31.49,31.49,0,0,0,128.61,140c-.11,1.82.45,3.55.63,5.34a2.57,2.57,0,0,0-.14,1.75c.4,2.91,0,5.81.06,8.71,0,2.58-.35,5.16.09,7.75a23.22,23.22,0,0,1,.06,3.83q0,6,0,12.09A2.73,2.73,0,0,1,129,181c-.1.17-.23.35-.46.33s-.29-.24-.35-.42a2.4,2.4,0,0,1-.12-.83c-.06-4.67.08-9.34-.1-14a3,3,0,0,1,.1-.71,3,3,0,0,0,.23-1.74,4.5,4.5,0,0,1,0,1.35,2.45,2.45,0,0,0-.31,1.34c0,.3,0,.66-.48.63-.62-.49-.51-1.15-.42-1.8.72-1.73.68-3.25-.54-3.94a91.06,91.06,0,0,0-3.49-11.8,17.75,17.75,0,0,0-3.34-6c-1.7-1.91-3.06-4.09-4.9-5.89a23.07,23.07,0,0,0-12.48-6.09,109.22,109.22,0,0,1-20.45-5.45c-1.83-.72-2.33-.42-2.1,1.5,1.11,9,4.06,17.21,11.11,23.48a113.43,113.43,0,0,0,10.48,8.19c2.8,2,6.12,2.46,9.31,3.29a35,35,0,0,1,7.22,2.52,8,8,0,0,1,4.79,7.79c-.11,8.12-.15,16.24.05,24.35.06,2.2-.63,3.75-2.75,4.63a10.93,10.93,0,0,0-4.67,4,54.19,54.19,0,0,1-20.84,17.79,51.81,51.81,0,0,1-27.87,5.44c-16.51-1.52-29.9-8.77-39.61-22.31a51.51,51.51,0,0,1-10-32.85,53.07,53.07,0,0,1,14.61-35.07,52.18,52.18,0,0,1,26.82-15.41,35.31,35.31,0,0,0,9.87-3.58,16.57,16.57,0,0,0,8-18.84c-.83-3.45-2.17-6.77-2.77-10.28-2.74-15.91.66-30.35,10.7-43a54.08,54.08,0,0,1,26.66-18.34,61.12,61.12,0,0,1,11.15-2c9.19-1.09,17.85.84,26.08,4.56,16.54,7.47,26.74,20.28,30.81,38,2.1,9.14,1.43,18.16-1.09,27.12-.87,3.09-1.58,6.24-.94,9.46a17.39,17.39,0,0,0,14.69,13.83c10.19,1.54,19.52,5.12,27.61,11.61a51.71,51.71,0,0,1,18.77,31.15c2.67,13.43.77,26.2-6.22,38-8.47,14.31-21.18,22.72-37.46,25.57-14.79,2.59-28.31-.88-40.5-9.56-3.7-2.64-6.7-6-9.8-9.32-1.1-1.16-2.22-2.3-3.38-3.4a13.59,13.59,0,0,0-4.93-3.1,3,3,0,0,1-2.17-3,81.24,81.24,0,0,1,.1-8.13,1.13,1.13,0,0,0,.17-.4q.07-10.16,0-20.32A1.15,1.15,0,0,0,133.56,168.86Z" style="fill:#56883c"/><path d="M128.24,165c.47,5.34.12,10.69.27,16.14.52-.37.45-.84.45-1.28,0-5.24.21-10.49-.09-15.71-.14-2.54.09-5.06-.07-7.59a53.39,53.39,0,0,1,.17-5.48c.08-2-.3-4-.31-6.08.31-.13.33.3.57.31h0c.51,4.61,0,9.23.1,13.84a3.52,3.52,0,0,0,.09,1.3l0,.73a2.94,2.94,0,0,0-.06,1.65c.12,1.48.08,3,.07,4.43-.07,8,.17,16.06.13,24.09,0,1.46-.42,2.91-.14,4.38a5.46,5.46,0,0,1-.17,2.18c-.28.82-.62,1.49-1.72,1.32-.55-.08-.66-.3-.61-.76a3.76,3.76,0,0,0,.23-1.25c0-9.41,0-18.82,0-28.23a4.36,4.36,0,0,1,.17-1.89l.16-.17C128,166.4,127.52,165.48,128.24,165Z" style="fill:#56893b"/><path d="M129.43,195.74a4.5,4.5,0,0,1-.19-2.69,82.45,82.45,0,0,0,0-12.75c0-.52,0-1,0-1.56q0-8.15,0-16.31c0-.42-.15-.89.22-1.25.05.91.15,1.83.15,2.74q0,14.06.06,28.12C129.63,193.28,129.5,194.51,129.43,195.74Z" style="fill:#56883c"/><path d="M127,198.38c0,.47.13.73.66.73s1-.06,1.12-.61c.07-.3.13-.51.45-.58,0,.63,0,1.18-.8,1.39-1.25.35-1.69,0-1.7-1.24q0-15.21,0-30.43c0-2.07-.11-4.15-.17-6.22.86.09,1,.8.92,1.39a8.76,8.76,0,0,1-.34,2.44c.27,10.3.05,20.59.12,30.89A6.9,6.9,0,0,1,127,198.38Z" style="fill:#56883c"/><path d="M129.41,160.46c-.35-.37-.2-.83-.2-1.25,0-3.89,0-7.78,0-11.68,0-.74-.35-1.48,0-2.21a6.14,6.14,0,0,1,.35,2.58C129.54,152.08,129.47,156.27,129.41,160.46Z" style="fill:#56883c"/><path d="M133.76,190h-.2q0-10.56,0-21.12h.2a1.33,1.33,0,0,1,.11.81q0,9.75,0,19.49A1.33,1.33,0,0,1,133.76,190Z" style="fill:#5a8936"/><path d="M127,165a7.92,7.92,0,0,1,.16-2.09,1.28,1.28,0,0,0-.62-1.51l0-.24c.95-.24,1.07.57,1.18,1.09a2.67,2.67,0,0,1-.45,2.74C127.2,165.14,127.12,165.14,127,165Z" style="fill:#56893b"/><path d="M127,165h.24a5,5,0,0,0,.24,1.92h0a2.44,2.44,0,0,0-.12,1.29q0,14.07,0,28.14a2.6,2.6,0,0,1-.11,1.29c-.09.24.4.66-.24.72Q127,181.7,127,165Z" style="fill:#578b36"/><path d="M133.76,190q0-10.56,0-21.12c.37.31.23.74.23,1.12q0,9.44,0,18.88C134,189.24,134.13,189.67,133.76,190Z" style="fill:#508843"/><path d="M128.27,165.15V163.4A2.14,2.14,0,0,1,128.27,165.15Z" style="fill:#56893b"/><path d="M127.28,197.66q0-14.68,0-29.36c0-.46-.18-1,.23-1.36q0,14.68,0,29.36C127.51,196.76,127.69,197.27,127.28,197.66Z" style="fill:#518742"/></svg>